<?xml version="1.0" encoding="UTF-8" standalone="no"?>
<svg
   width="32"
   height="32"
   viewBox="0 0 32 32"
   version="1.1"
   id="svg1"
   xml:space="preserve"
   xmlns="http://www.w3.org/2000/svg"
   xmlns:svg="http://www.w3.org/2000/svg"><defs
     id="defs1"><filter
       id="mask-powermask-path-effect2_inverse"
       style="color-interpolation-filters:sRGB"
       height="100"
       width="100"
       x="-50"
       y="-50"><feColorMatrix
         id="mask-powermask-path-effect2_primitive1"
         values="1"
         type="saturate"
         result="fbSourceGraphic" /><feColorMatrix
         id="mask-powermask-path-effect2_primitive2"
         values="-1 0 0 0 1 0 -1 0 0 1 0 0 -1 0 1 0 0 0 1 0 "
         in="fbSourceGraphic" /></filter><clipPath
       clipPathUnits="userSpaceOnUse"
       id="clipPath3"><path
         id="path4"
         style="fill:none;stroke:currentColor;stroke-width:1;stroke-linecap:round;stroke-linejoin:round;stroke-dasharray:none;stroke-opacity:1;paint-order:fill markers stroke"
         d="m 99.703125,135.32031 v 26.34961 h 17.255855 a 0.51956961,0.51956961 0 0 1 0.004,0 c 0.50883,0.004 0.78553,-0.11671 0.9668,-0.30859 0.18127,-0.19188 0.31024,-0.52097 0.31836,-1.06641 v -17.94726 l -7.00977,-7.00977 H 99.890625 a 0.51956961,0.51956961 0 0 1 -0.05664,-0.004 z" /></clipPath></defs><g
     id="layer1"
     transform="translate(-89.710405,-133.77324)"><path
       id="path9"
       style="fill:currentColor;stroke:none;stroke-width:1.5;stroke-linecap:round;stroke-linejoin:round;stroke-dasharray:none;stroke-opacity:1;paint-order:fill markers stroke"
       d="m 99.703125,135.32031 v 26.34961 h 17.255855 a 0.51956961,0.51956961 0 0 1 0.004,0 c 0.50883,0.004 0.78553,-0.11671 0.9668,-0.30859 0.18127,-0.19188 0.31024,-0.52097 0.31836,-1.06641 v -17.94726 l -7.00977,-7.00977 H 99.890625 a 0.51956961,0.51956961 0 0 1 -0.05664,-0.004 z"
       transform="translate(1.3343043,1.380343)" /><rect
       style="fill:#ffffff;stroke:none;stroke-width:1;stroke-linecap:round;stroke-linejoin:round;stroke-dasharray:none;stroke-opacity:1;paint-order:fill markers stroke"
       id="rect1"
       width="10.608234"
       height="10.010588"
       x="110.26588"
       y="133.20059"
       ry="1.5"
       clip-path="url(#clipPath3)"
       transform="translate(1.3343043,1.380343)" /><path
       id="path1"
       style="fill:none;stroke:currentColor;stroke-width:1.5;stroke-linecap:round;stroke-linejoin:round;stroke-dasharray:none;stroke-opacity:1;paint-order:fill markers stroke"
       d="m 99.703125,135.32031 v 26.34961 h 17.255855 a 0.51956961,0.51956961 0 0 1 0.004,0 c 0.50883,0.004 0.78553,-0.11671 0.9668,-0.30859 0.18127,-0.19188 0.31024,-0.52097 0.31836,-1.06641 v -17.94726 l -7.00977,-7.00977 H 99.890625 a 0.51956961,0.51956961 0 0 1 -0.05664,-0.004 z"
       transform="translate(1.3343043,1.380343)" /><path
       style="fill:#ffffff;stroke:#ffffff;stroke-width:2.25;stroke-linecap:round;stroke-linejoin:round;stroke-dasharray:none;stroke-opacity:1;paint-order:fill markers stroke"
       d="m 108.475,151.02867 h 5.60293"
       id="path5" /><path
       style="fill:#ffffff;stroke:#ffffff;stroke-width:2.25;stroke-linecap:round;stroke-linejoin:round;stroke-dasharray:none;stroke-opacity:1;paint-order:fill markers stroke"
       d="m 108.475,155.66043 h 5.60293"
       id="path6" /><path
       id="path7"
       style="fill:currentColor;stroke:#ffffff;stroke-width:4;stroke-linecap:round;stroke-linejoin:round;stroke-dasharray:none;stroke-opacity:1;paint-order:stroke markers fill"
       d="m 98.383678,137.27024 a 3.0629411,3.0629411 0 0 0 -3.063379,3.06286 3.0629411,3.0629411 0 0 0 3.063379,3.06338 3.0629411,3.0629411 0 0 0 3.062862,-3.06338 3.0629411,3.0629411 0 0 0 -3.062862,-3.06286 z m 0.149345,8.29251 c 0,0 -2.444706,0.24338 -2.97708,0.38603 -0.532371,0.14265 -1.035168,0.48602 -1.225765,1.19734 -0.190594,0.71132 -1.101224,6.93291 -1.101224,6.93291 -0.06444,0.51502 -0.156055,0.97452 0.298689,0.97152 h 1.659331 l 0.133325,6.12572 c 0.08281,1.55692 2.06177,1.37379 2.091862,0 l 0.341581,-6.37325 c 0.01813,-0.41189 0.166926,-0.73155 0.779281,-0.72399 0.612353,-0.008 0.76115,0.3121 0.77928,0.72399 l 0.341581,6.37325 c 0.03009,1.37379 2.009046,1.55692 2.091856,0 l 0.13333,-6.12572 h 1.65933 c 0.45475,0.003 0.36309,-0.4565 0.29869,-0.97152 0,0 -0.91063,-6.22159 -1.10122,-6.93291 -0.1906,-0.71132 -0.69339,-1.05469 -1.22577,-1.19734 -0.53237,-0.14265 -2.977077,-0.38603 -2.977077,-0.38603 z" /></g></svg>
